<?xml version="1.0" encoding="UTF-8"?>
<svg id="Layer_1" xmlns="http://www.w3.org/2000/svg" xmlns:xlink="http://www.w3.org/1999/xlink" viewBox="0 0 45 45">
  <defs>
    <style>
      .cls-1 {
        fill: url(#radial-gradient-6);
      }

      .cls-2 {
        fill: url(#radial-gradient-5);
      }

      .cls-3 {
        fill: url(#radial-gradient-4);
      }

      .cls-4 {
        fill: url(#radial-gradient-3);
      }

      .cls-5 {
        fill: url(#radial-gradient-2);
      }

      .cls-6 {
        fill: url(#radial-gradient);
      }
    </style>
    <radialGradient id="radial-gradient" cx="24.67" cy="20.39" fx="24.67" fy="20.39" r="4.04" gradientUnits="userSpaceOnUse">
      <stop offset="0" stop-color="#05c7f2"/>
      <stop offset="1" stop-color="#010d26"/>
    </radialGradient>
    <radialGradient id="radial-gradient-2" cx="24.67" cy="20.43" fx="24.67" fy="20.43" r="8.04" xlink:href="#radial-gradient"/>
    <radialGradient id="radial-gradient-3" cx="24.32" cy="33.23" fx="24.32" fy="33.23" r="11.25" xlink:href="#radial-gradient"/>
    <radialGradient id="radial-gradient-4" cx="24.67" cy="8.19" fx="24.67" fy="8.19" r="2.29" xlink:href="#radial-gradient"/>
    <radialGradient id="radial-gradient-5" cx="28.83" cy="9.58" fx="28.83" fy="9.58" r="1.33" xlink:href="#radial-gradient"/>
    <radialGradient id="radial-gradient-6" cx="20.51" cy="9.58" fx="20.51" fy="9.58" r="1.33" xlink:href="#radial-gradient"/>
  </defs>
  <path class="cls-6" d="M24.71,23.46c-.06-.01-.13-.02-.19,0-.64-.07-1.11-.61-1.12-1.25,0-.31-.25-.55-.55-.55s-.55.25-.55.55c0,1.07.72,2,1.75,2.29v.55c0,.31.25.55.55.55s.55-.25.55-.55v-.52c1.19-.25,2-1.36,1.87-2.56-.13-1.21-1.14-2.12-2.36-2.13-.7,0-1.26-.56-1.26-1.26s.56-1.26,1.26-1.26,1.26.56,1.26,1.26c0,.31.25.55.55.55s.55-.25.55-.55c0-1.12-.79-2.09-1.88-2.32v-.5c0-.31-.25-.55-.55-.55s-.55.25-.55.55v.54c-1.14.31-1.88,1.42-1.72,2.6s1.16,2.05,2.35,2.05c.69,0,1.25.55,1.26,1.24.01.69-.53,1.26-1.21,1.28Z"/>
  <path class="cls-5" d="M16.62,20.43c0,4.44,3.6,8.04,8.04,8.04s8.04-3.6,8.04-8.04-3.6-8.04-8.04-8.04c-4.44,0-8.04,3.6-8.04,8.04ZM24.67,13.49c3.83,0,6.94,3.1,6.94,6.94s-3.1,6.94-6.94,6.94-6.94-3.1-6.94-6.94c0-3.83,3.11-6.93,6.94-6.94Z"/>
  <path class="cls-4" d="M35.45,29.84l-4.35,2.05c-.6-1.12-1.75-1.83-3.02-1.86l-4.01-.11c-.64-.02-1.26-.18-1.82-.47l-.41-.21c-2.09-1.09-4.58-1.09-6.67,0l.03-.92c0-.31-.23-.56-.54-.57l-4.4-.12c-.31,0-.56.23-.57.54l-.27,9.65c0,.31.23.56.54.57l4.4.12h.02c.3,0,.55-.24.55-.54v-.46s1.16-.61,1.16-.61c.45-.24.97-.3,1.46-.16l6.82,1.92s.02,0,.04,0c.49.1,1,.15,1.5.15,1.07,0,2.12-.23,3.09-.67.02-.01.05-.02.07-.04l9.9-6.4c.25-.16.33-.48.18-.74-.73-1.3-2.36-1.8-3.7-1.13ZM10.55,37.3l.24-8.54,3.29.09-.24,8.55-3.29-.09ZM28.5,37.16c-1.21.54-2.55.69-3.85.43l-6.81-1.91c-.77-.22-1.59-.13-2.29.25l-.58.31.16-5.68c1.85-1.23,4.22-1.36,6.2-.33l.41.21c.71.37,1.5.57,2.3.59l4.01.11c1.13.03,2.08.83,2.31,1.94l-5.98-.16c-.31,0-.56.23-.57.54,0,.31.23.56.54.57l6.59.18h.02c.3,0,.55-.24.55-.54,0-.24-.01-.48-.05-.72l4.46-2.11s0,0,.01,0c.63-.32,1.4-.21,1.92.27l-9.36,6.05Z"/>
  <path class="cls-3" d="M25.22,10.83v-5.27c0-.31-.25-.55-.55-.55s-.55.25-.55.55v5.27c0,.31.25.55.55.55s.55-.25.55-.55Z"/>
  <path class="cls-2" d="M29.38,10.83v-2.5c0-.31-.25-.55-.55-.55s-.55.25-.55.55v2.5c0,.31.25.55.55.55s.55-.25.55-.55Z"/>
  <path class="cls-1" d="M21.06,10.83v-2.5c0-.31-.25-.55-.55-.55s-.55.25-.55.55v2.5c0,.31.25.55.55.55s.55-.25.55-.55Z"/>
</svg>