<?xml version="1.0" encoding="UTF-8"?>
<svg id="Layer_1" xmlns="http://www.w3.org/2000/svg" xmlns:xlink="http://www.w3.org/1999/xlink" viewBox="0 0 45 45">
  <defs>
    <style>
      .cls-1 {
        fill: url(#radial-gradient);
      }
    </style>
    <radialGradient id="radial-gradient" cx="24.3" cy="22.53" fx="24.3" fy="22.53" r="14.93" gradientUnits="userSpaceOnUse">
      <stop offset="0" stop-color="#05c7f2"/>
      <stop offset="1" stop-color="#010d26"/>
    </radialGradient>
  </defs>
  <path class="cls-1" d="M34.46,26.85c0-1.11-.9-2.02-2.02-2.02h-6.11c.84-2.05.85-4.34,0-6.39,0-.02-.02-.04-.03-.05-.51-.92-1.67-1.25-2.59-.74-.36.2-.65.52-.82.9-.02.05-.04.11-.04.16l-.14,2.05c-.22,1.18-.85,2.24-1.79,2.98-.38.13-1.06.6-2.85,2.3v-.05c0-.56-.45-1.01-1.01-1.01h-5.1c-.56,0-1.01.45-1.01,1.01v10.17c0,.56.45,1.01,1.01,1.01h5.1c.56,0,1.01-.45,1.01-1.01v-.04c1.4.31,2.13.68,2.99,1.47.34.32.78.49,1.25.49h7.9c1.11,0,2.02-.9,2.02-2.02,0-.47-.16-.93-.47-1.29.63-.38,1.08-1.06,1.08-1.78,0-.45-.15-.88-.43-1.24.64-.38,1.1-1.08,1.1-1.83,0-.42-.13-.83-.38-1.17.79-.29,1.32-1.05,1.32-1.89ZM17.11,36.15s-.02.04-.04.04h-5.1s-.04-.02-.04-.04v-10.17s.02-.04.04-.04h5.1s.04.02.04.04v10.17ZM32.44,27.89h-1.69c-.27,0-.49.22-.49.49s.22.49.49.49h.75c.58,0,1.05.47,1.05,1.05,0,.55-.54,1.1-1.09,1.15-.2-.07-.42-.1-.63-.1-.27,0-.49.22-.49.49s.22.49.49.49c.12,0,.24.02.36.06.01,0,.03.01.04.02.39.16.65.54.65.97,0,.54-.56,1.08-1.13,1.12-.17-.05-.35-.07-.53-.07-.27,0-.49.22-.49.49s.22.49.49.49c.1,0,.2.01.3.04.01,0,.02,0,.04.01.55.18.84.78.66,1.33-.14.43-.54.71-.99.71h-7.9c-.22,0-.43-.08-.58-.23-1.03-.96-1.93-1.39-3.65-1.75v-7.73l.09-.08c2.38-2.31,2.97-2.61,3.09-2.65.07-.01.14-.05.2-.09,1.17-.9,1.97-2.2,2.23-3.66,0-.02,0-.03,0-.05l.14-1.98c.25-.45.81-.62,1.27-.38.15.08.27.2.36.34.82,2.03.71,4.32-.31,6.25-.12.24-.03.53.2.66.07.04.15.06.23.06h6.87c.58,0,1.04.48,1.04,1.06,0,.57-.47,1.04-1.04,1.04h0ZM15.46,27.54v.06c0,.27-.22.49-.49.49s-.49-.22-.49-.49v-.06c0-.27.22-.49.49-.49s.49.22.49.49ZM30.03,11.16c-.06-.18-.22-.32-.42-.33l-3.48-.33-1.39-3.21c-.11-.25-.39-.36-.64-.25-.11.05-.2.14-.25.25l-1.39,3.21-3.48.33c-.27.03-.46.26-.44.53.01.12.07.24.16.32l2.62,2.31-.76,3.41c-.06.26.11.52.37.58.12.03.25,0,.35-.06l3.01-1.78,3.01,1.78c.23.14.53.06.66-.17.06-.11.08-.23.06-.35l-.76-3.41,2.62-2.31c.15-.13.2-.33.14-.51ZM26.41,13.45c-.13.12-.19.3-.15.47l.58,2.59-2.29-1.35c-.15-.09-.34-.09-.49,0l-2.29,1.35.58-2.6c.04-.17-.02-.35-.15-.47l-2-1.76,2.65-.25c.18-.02.33-.13.4-.29l1.06-2.44,1.06,2.44c.07.16.22.27.4.29l2.65.25-1.99,1.76ZM38.57,14.01c-.06-.18-.22-.32-.42-.33l-2.45-.23-.98-2.26c-.11-.25-.39-.36-.64-.25-.11.05-.2.14-.25.25l-.98,2.26-2.45.23c-.27.03-.46.26-.44.53.01.12.07.24.16.32l1.85,1.63-.54,2.4c-.06.26.11.52.37.58.12.03.25,0,.35-.06l2.12-1.25,2.12,1.25c.23.14.53.06.67-.17.06-.11.08-.23.06-.35l-.54-2.4,1.85-1.63c.15-.13.2-.33.14-.51h0ZM35.73,15.61c-.13.12-.19.3-.15.47l.36,1.59-1.4-.83c-.15-.09-.34-.09-.49,0l-1.4.83.36-1.59c.04-.17-.02-.35-.15-.47l-1.22-1.08,1.62-.15c.18-.02.33-.13.4-.29l.65-1.49.65,1.49c.07.16.22.27.4.29l1.62.15-1.22,1.08ZM18.19,13.67l-2.45-.23-.98-2.26c-.11-.25-.39-.36-.64-.25-.11.05-.2.14-.25.25l-.98,2.26-2.45.23c-.27.03-.46.26-.44.53.01.12.07.24.16.32l1.85,1.63-.54,2.4c-.06.26.11.52.37.58.12.03.25,0,.35-.06l2.12-1.25,2.12,1.25c.23.14.53.06.66-.17.06-.11.08-.23.06-.35l-.54-2.4,1.85-1.63c.2-.18.22-.48.04-.69-.08-.09-.2-.15-.32-.16h0ZM15.76,15.61c-.13.12-.19.3-.15.47l.36,1.59-1.4-.83c-.15-.09-.34-.09-.49,0l-1.4.83.36-1.59c.04-.17-.02-.35-.15-.47l-1.22-1.08,1.62-.15c.18-.02.33-.13.4-.29l.65-1.49.65,1.49c.07.16.22.27.4.29l1.62.15-1.22,1.08Z"/>
</svg>