<?xml version="1.0" encoding="UTF-8"?>
<svg id="Layer_1" xmlns="http://www.w3.org/2000/svg" xmlns:xlink="http://www.w3.org/1999/xlink" viewBox="0 0 45 45">
  <defs>
    <style>
      .cls-1 {
        fill: url(#radial-gradient);
      }
    </style>
    <radialGradient id="radial-gradient" cx="22.73" cy="23.31" fx="22.73" fy="23.31" r="15.53" gradientUnits="userSpaceOnUse">
      <stop offset="0" stop-color="#05c7f2"/>
      <stop offset="1" stop-color="#010d26"/>
    </radialGradient>
  </defs>
  <path class="cls-1" d="M22.73,6.61c-7.87,0-14.27,6.4-14.27,14.27,0,.3.24.54.54.54h5.12c.3,0,.54-.24.54-.54,0-4.45,3.62-8.08,8.08-8.08s8.08,3.62,8.08,8.08c0,.3.24.54.54.54h5.12c.3,0,.54-.24.54-.54,0-7.87-6.4-14.27-14.27-14.27ZM22.19,11.75c-1.27.07-2.48.41-3.56.96l-2.02-3.5c1.68-.88,3.58-1.42,5.59-1.5v4.05ZM23.27,7.7c2.01.08,3.9.61,5.59,1.5l-2.02,3.5c-1.08-.55-2.29-.88-3.56-.96v-4.05ZM13.59,20.35h-4.05c.08-2.01.61-3.9,1.5-5.59l3.5,2.02c-.55,1.08-.88,2.29-.96,3.56h0ZM15.09,15.85l-3.5-2.02c1.05-1.64,2.44-3.04,4.09-4.09l2.02,3.5c-1.04.68-1.92,1.57-2.61,2.61ZM27.76,13.24l2.02-3.5c1.64,1.05,3.04,2.44,4.09,4.09l-3.5,2.02c-.68-1.03-1.57-1.92-2.61-2.61ZM31.86,20.35c-.07-1.27-.41-2.48-.96-3.56l3.5-2.02c.89,1.68,1.42,3.58,1.5,5.59h-4.05ZM27.39,16.23c-.21-.21-.55-.21-.76,0l-2.55,2.55c-.39-.25-.85-.39-1.35-.39-1.38,0-2.5,1.12-2.5,2.5s1.12,2.5,2.5,2.5,2.5-1.12,2.5-2.5c0-.5-.15-.96-.39-1.35l2.55-2.55c.21-.21.21-.55,0-.76h0ZM22.73,22.31c-.79,0-1.43-.64-1.43-1.43s.64-1.43,1.43-1.43,1.43.64,1.43,1.43-.64,1.43-1.43,1.43ZM35.71,33.68l-.52-.2c-.08-.27-.19-.54-.33-.79l.23-.51c.09-.2.05-.44-.11-.6l-.89-.89c-.16-.16-.4-.2-.6-.11l-.51.23c-.25-.13-.52-.24-.79-.33l-.2-.52c-.08-.21-.28-.35-.5-.35h-1.26c-.22,0-.42.14-.5.35l-.2.52c-.27.08-.54.19-.79.33l-.51-.23c-.2-.09-.44-.05-.6.11l-.89.89s-.04.04-.06.07c-.6-.49-1.29-.87-2.02-1.12.89-.66,1.47-1.72,1.47-2.91,0-2-1.63-3.63-3.63-3.63s-3.63,1.63-3.63,3.63c0,1.19.58,2.25,1.47,2.91-2.38.82-4.17,2.95-4.45,5.58-.02.15.03.3.13.42s.25.18.4.18h10.32c.04.08.07.15.11.23l-.23.51c-.09.2-.05.44.11.6l.89.89c.16.16.4.2.6.11l.51-.23c.25.13.52.24.79.33l.2.52c.08.21.28.35.5.35h1.26c.22,0,.42-.14.5-.35l.2-.52c.27-.08.54-.19.79-.33l.51.23c.2.09.44.05.6-.11l.89-.89c.16-.16.2-.4.11-.6l-.23-.51c.13-.25.24-.52.33-.79l.52-.2c.21-.08.35-.28.35-.5v-1.26c0-.22-.14-.42-.34-.5h0ZM19.94,27.62c0-1.41,1.15-2.55,2.55-2.55s2.55,1.15,2.55,2.55-1.14,2.55-2.55,2.55h0c-1.41,0-2.55-1.15-2.55-2.55ZM22.49,31.25h0s0,0,0,0c1.6,0,3.1.68,4.16,1.86-.05.12-.09.24-.13.37l-.52.2c-.21.08-.35.28-.35.5v1.26c0,.06.01.13.03.19h-8.64c.55-2.53,2.79-4.38,5.45-4.38h0ZM34.98,35.07l-.43.16c-.17.06-.29.21-.33.38-.08.36-.22.69-.42,1.01-.09.15-.11.34-.03.5l.19.42-.37.37-.42-.19c-.16-.07-.35-.06-.5.03-.31.19-.65.33-1.01.42-.17.04-.31.16-.38.33l-.16.43h-.52l-.16-.43c-.06-.17-.21-.29-.38-.33-.36-.08-.69-.23-1.01-.42-.15-.09-.34-.11-.5-.03l-.42.19-.37-.37.19-.42c.07-.16.06-.35-.03-.5-.19-.31-.33-.65-.42-1.01-.04-.17-.16-.31-.33-.38l-.43-.16v-.52l.43-.16c.17-.06.29-.21.33-.38.08-.36.23-.69.42-1.01.09-.15.11-.34.03-.5l-.19-.42.37-.37.42.19c.16.07.35.06.5-.03.31-.19.65-.33,1.01-.42.17-.04.31-.16.38-.33l.16-.43h.52l.16.43c.06.17.21.29.38.33.36.08.69.23,1.01.42.15.09.34.11.5.03l.42-.19.37.37-.19.42c-.07.16-.06.35.03.5.19.31.33.65.42,1.01.04.17.16.31.33.38l.43.16v.52ZM30.86,32.07c-1.51,0-2.74,1.23-2.74,2.74s1.23,2.74,2.74,2.74,2.74-1.23,2.74-2.74c0-1.51-1.23-2.74-2.74-2.74ZM30.86,36.47c-.92,0-1.66-.74-1.66-1.66s.74-1.66,1.66-1.66,1.66.74,1.66,1.66c0,.92-.74,1.66-1.66,1.66Z"/>
</svg>