<?xml version="1.0" encoding="UTF-8"?>
<svg id="Layer_1" xmlns="http://www.w3.org/2000/svg" viewBox="0 0 332 162">
  <defs>
    <style>
      .cls-1 {
        stroke: #112129;
        stroke-width: .5px;
      }

      .cls-1, .cls-2 {
        fill: none;
        stroke-miterlimit: 10;
      }

      .cls-3 {
        font-family: Roboto-Light, Roboto;
        font-weight: 300;
      }

      .cls-4 {
        fill: #112129;
      }

      .cls-5 {
        font-size: 20px;
      }

      .cls-6 {
        fill: #0ff2b2;
      }

      .cls-2 {
        stroke: #010d26;
        stroke-width: .2px;
      }

      .cls-7 {
        font-family: Roboto-Bold, Roboto;
        font-weight: 700;
      }

      .cls-8 {
        fill: #f7fafb;
      }

      .cls-9 {
        letter-spacing: 0em;
      }

      .cls-10 {
        letter-spacing: 0em;
      }
    </style>
  </defs>
  <text class="cls-5" transform="translate(23.68 32.67)"><tspan class="cls-3"><tspan x="0" y="0">R</tspan><tspan class="cls-10" x="13.05" y="0">e</tspan><tspan class="cls-9" x="23.21" y="0">v</tspan><tspan x="32.85" y="0">olutionising</tspan></tspan><tspan class="cls-3"><tspan x="0" y="24">transformation traditional </tspan></tspan><tspan class="cls-3"><tspan x="0" y="48">enterprises into </tspan></tspan><tspan class="cls-7"><tspan x="0" y="72">automomous </tspan><tspan class="cls-6" x="124.05" y="72">Ai</tspan><tspan x="142.12" y="72" xml:space="preserve"> agents</tspan></tspan></text>
  <g>
    <g>
      <polyline class="cls-2" points="354.59 165.63 323.12 122.92 313 165.63"/>
      <polyline class="cls-2" points="285.55 165.63 323.12 122.92 268.75 165.63 292.57 124.18 323.12 122.92"/>
      <polygon class="cls-2" points="294.31 94.68 292.57 124.18 310.2 118.51 294.31 94.68"/>
      <polyline class="cls-2" points="354.59 134.74 323.12 122.92 354.59 113.67 323.12 122.92 310.2 118.51 335.41 67.64 294.31 94.68 323.12 58.6 326.52 40.21 333.79 52.47 323.12 58.6"/>
      <polyline class="cls-2" points="310.2 118.51 354.59 113.67 335.41 67.64 354.59 98.82"/>
      <polyline class="cls-2" points="251.48 165.63 247.34 148.9 230.41 148.9 251.48 165.63 264.26 109.43 247.34 148.9"/>
      <polyline class="cls-2" points="230.41 148.9 192.42 154.08 217.98 116.44 230.41 148.9 217.98 165.63 192.42 154.08"/>
      <polyline class="cls-2" points="247.34 148.9 217.98 116.44 264.26 109.43 294.31 94.68 354.59 113.67"/>
      <polyline class="cls-2" points="192.42 154.08 169.63 148.9 185.86 130.6 192.42 154.08 181.02 165.63 169.63 148.9"/>
      <polyline class="cls-2" points="217.98 116.44 185.86 130.6 192.09 117.75 164.67 126.37 185.86 130.6"/>
      <polyline class="cls-2" points="264.26 109.43 258.04 67.64 294.31 94.68"/>
      <polyline class="cls-2" points="301.38 67.64 258.04 67.64 292.57 124.18 264.26 109.43 268.75 165.63"/>
      <polyline class="cls-2" points="323.12 58.6 304.67 33.65 301.38 67.64"/>
      <polyline class="cls-2" points="294.31 94.68 301.38 67.64 323.12 58.6 335.41 67.64 333.79 52.47 338.17 27.5 326.52 40.21 304.67 33.65 293.69 67.64"/>
      <line class="cls-2" x1="192.09" y1="117.75" x2="217.98" y2="116.44"/>
      <polyline class="cls-2" points="164.67 126.37 169.63 148.9 138.04 141.04 164.67 126.37 145.49 142.89 167.55 165.63 169.63 148.9 178.91 129.21 192.09 117.75"/>
      <polyline class="cls-2" points="119.72 165.63 138.04 141.04 167.55 165.63"/>
      <polyline class="cls-2" points="264.26 109.43 286.5 134.74 323.12 122.92"/>
    </g>
    <g>
      <g>
        <path class="cls-8" d="M169.63,151.51c1.44,0,2.61-1.17,2.61-2.61,0-1.44-1.17-2.61-2.61-2.61-1.44,0-2.61,1.17-2.61,2.61s1.17,2.61,2.61,2.61Z"/>
        <path class="cls-1" d="M169.63,151.51c-.68,0-1.36-.28-1.85-.76-.49-.48-.77-1.16-.76-1.85,0-.68.28-1.36.76-1.85.48-.49,1.16-.77,1.85-.76.68,0,1.36.28,1.85.76.49.48.77,1.16.76,1.85,0,.68-.28,1.36-.76,1.85-.48.49-1.16.77-1.85.76"/>
      </g>
      <g>
        <path class="cls-4" d="M169.63,150.12c.67,0,1.22-.55,1.22-1.22s-.55-1.22-1.22-1.22-1.22.55-1.22,1.22.55,1.22,1.22,1.22Z"/>
        <path class="cls-1" d="M169.63,150.12c-.65.02-1.24-.57-1.22-1.22-.02-.65.57-1.24,1.22-1.22.65-.02,1.24.57,1.22,1.22.02.65-.57,1.24-1.22,1.22"/>
      </g>
    </g>
    <g>
      <g>
        <path class="cls-8" d="M293.69,68.78c.63,0,1.14-.51,1.14-1.14s-.51-1.14-1.14-1.14-1.14.51-1.14,1.14c0,.63.51,1.14,1.14,1.14Z"/>
        <path class="cls-1" d="M293.69,68.78c-.61.02-1.16-.53-1.14-1.14-.02-.61.53-1.16,1.14-1.14.61-.02,1.16.53,1.14,1.14.02.61-.53,1.16-1.14,1.14"/>
      </g>
      <g>
        <path class="cls-4" d="M293.69,68.17c.29,0,.53-.24.53-.53,0-.29-.24-.53-.53-.53s-.53.24-.53.53.24.53.53.53Z"/>
        <path class="cls-1" d="M293.69,68.17c-.28,0-.54-.25-.53-.53,0-.28.25-.54.53-.53.28,0,.54.25.53.53,0,.28-.25.54-.53.53"/>
      </g>
    </g>
    <g>
      <g>
        <path class="cls-8" d="M318.42,103.19c.63,0,1.14-.51,1.14-1.14s-.51-1.14-1.14-1.14-1.14.51-1.14,1.14c0,.63.51,1.14,1.14,1.14Z"/>
        <path class="cls-1" d="M318.42,103.19c-.61.02-1.16-.53-1.14-1.14-.02-.61.53-1.16,1.14-1.14.61-.02,1.16.53,1.14,1.14.02.61-.53,1.16-1.14,1.14"/>
      </g>
      <g>
        <path class="cls-4" d="M318.42,102.58c.29,0,.53-.24.53-.53,0-.29-.24-.53-.53-.53s-.53.24-.53.53c0,.29.24.53.53.53Z"/>
        <path class="cls-1" d="M318.42,102.58c-.28,0-.54-.25-.53-.53,0-.28.25-.54.53-.53.28,0,.54.25.53.53,0,.28-.25.54-.53.53"/>
      </g>
    </g>
    <g>
      <g>
        <circle class="cls-8" cx="310.2" cy="118.51" r="1.14"/>
        <path class="cls-1" d="M310.2,119.65c-.61.02-1.16-.53-1.14-1.14-.02-.61.53-1.16,1.14-1.14.61-.02,1.16.53,1.14,1.14.02.61-.53,1.16-1.14,1.14"/>
      </g>
      <g>
        <circle class="cls-4" cx="310.2" cy="118.51" r=".53"/>
        <path class="cls-1" d="M310.2,119.04c-.28,0-.54-.25-.53-.53,0-.28.25-.54.53-.53.28,0,.54.25.53.53,0,.28-.25.54-.53.53"/>
      </g>
    </g>
    <g>
      <g>
        <path class="cls-8" d="M185.67,131.77c.63,0,1.14-.51,1.14-1.14,0-.63-.51-1.14-1.14-1.14s-1.14.51-1.14,1.14c0,.63.51,1.14,1.14,1.14Z"/>
        <path class="cls-1" d="M185.67,131.77c-.61.02-1.16-.53-1.14-1.14-.02-.61.53-1.16,1.14-1.14.61-.02,1.16.53,1.14,1.14.02.61-.53,1.16-1.14,1.14"/>
      </g>
      <g>
        <path class="cls-4" d="M185.67,131.16c.29,0,.53-.24.53-.53,0-.29-.24-.53-.53-.53s-.53.24-.53.53c0,.29.24.53.53.53Z"/>
        <path class="cls-1" d="M185.67,131.16c-.28,0-.54-.25-.53-.53,0-.28.25-.54.53-.53.28,0,.54.25.53.53,0,.28-.25.54-.53.53"/>
      </g>
    </g>
    <g>
      <g>
        <path class="cls-8" d="M138.04,142.18c.63,0,1.14-.51,1.14-1.14s-.51-1.14-1.14-1.14-1.14.51-1.14,1.14c0,.63.51,1.14,1.14,1.14Z"/>
        <path class="cls-1" d="M138.04,142.18c-.61.02-1.16-.53-1.14-1.14-.02-.61.53-1.16,1.14-1.14.61-.02,1.16.53,1.14,1.14.02.61-.53,1.16-1.14,1.14"/>
      </g>
      <g>
        <path class="cls-4" d="M138.04,141.57c.29,0,.53-.24.53-.53,0-.29-.24-.53-.53-.53s-.53.24-.53.53c0,.29.24.53.53.53Z"/>
        <path class="cls-1" d="M138.04,141.57c-.28,0-.54-.25-.53-.53,0-.28.25-.54.53-.53.28,0,.54.25.53.53,0,.28-.25.54-.53.53"/>
      </g>
    </g>
    <g>
      <g>
        <circle class="cls-8" cx="258.04" cy="67.64" r="1.48"/>
        <path class="cls-1" d="M258.04,69.12c-.79.02-1.5-.69-1.48-1.48-.02-.79.69-1.5,1.48-1.48.79-.02,1.5.69,1.48,1.48.02.79-.69,1.5-1.48,1.48"/>
      </g>
      <g>
        <path class="cls-4" d="M258.04,68.33c.38,0,.69-.31.69-.69,0-.38-.31-.69-.69-.69s-.69.31-.69.69.31.69.69.69Z"/>
        <path class="cls-1" d="M258.04,68.33c-.37,0-.7-.32-.69-.69,0-.37.32-.7.69-.69.37,0,.7.32.69.69,0,.37-.32.7-.69.69"/>
      </g>
    </g>
    <g>
      <path class="cls-6" d="M192.09,119.22c.82,0,1.48-.66,1.48-1.48,0-.82-.66-1.48-1.48-1.48s-1.48.66-1.48,1.48.66,1.48,1.48,1.48Z"/>
      <path class="cls-6" d="M192.09,118.44c.38,0,.69-.31.69-.69,0-.38-.31-.69-.69-.69s-.69.31-.69.69.31.69.69.69Z"/>
    </g>
    <g>
      <g>
        <path class="cls-8" d="M292.48,125.92c1.03,0,1.87-.84,1.87-1.87s-.84-1.87-1.87-1.87-1.87.84-1.87,1.87c0,1.03.84,1.87,1.87,1.87Z"/>
        <path class="cls-1" d="M292.48,125.92c-1,.03-1.89-.87-1.87-1.87-.03-1,.87-1.89,1.87-1.87,1-.03,1.89.87,1.87,1.87.03,1-.87,1.89-1.87,1.87"/>
      </g>
      <g>
        <path class="cls-4" d="M292.48,124.92c.48,0,.87-.39.87-.87,0-.48-.39-.87-.87-.87s-.87.39-.87.87c0,.48.39.87.87.87Z"/>
        <path class="cls-1" d="M292.48,124.92c-.47.01-.88-.41-.87-.87-.01-.47.41-.88.87-.87.47-.01.88.41.87.87.01.47-.41.88-.87.87"/>
      </g>
    </g>
    <g>
      <path class="cls-6" d="M247.34,149.64c1.03,0,1.87-.84,1.87-1.87s-.84-1.87-1.87-1.87-1.87.84-1.87,1.87c0,1.03.84,1.87,1.87,1.87Z"/>
      <path class="cls-6" d="M247.34,148.65c.48,0,.87-.39.87-.87,0-.48-.39-.87-.87-.87s-.87.39-.87.87c0,.48.39.87.87.87Z"/>
    </g>
    <g>
      <g>
        <circle class="cls-8" cx="164.67" cy="126.28" r="1.87"/>
        <path class="cls-1" d="M164.67,128.15c-1,.03-1.89-.87-1.87-1.87-.03-1,.87-1.89,1.87-1.87,1-.03,1.89.87,1.87,1.87.03,1-.87,1.89-1.87,1.87"/>
      </g>
      <g>
        <path class="cls-4" d="M164.67,127.15c.48,0,.87-.39.87-.87,0-.48-.39-.87-.87-.87s-.87.39-.87.87.39.87.87.87Z"/>
        <path class="cls-1" d="M164.67,127.15c-.47.01-.88-.41-.87-.87-.01-.47.41-.88.87-.87.47-.01.88.41.87.87.01.47-.41.88-.87.87"/>
      </g>
    </g>
    <g>
      <g>
        <circle class="cls-8" cx="218.48" cy="116.44" r="1.87"/>
        <path class="cls-1" d="M218.48,118.3c-1,.03-1.89-.87-1.87-1.87-.03-1,.87-1.89,1.87-1.87,1-.03,1.89.87,1.87,1.87.03,1-.87,1.89-1.87,1.87"/>
      </g>
      <g>
        <circle class="cls-4" cx="218.48" cy="116.44" r=".87"/>
        <path class="cls-1" d="M218.48,117.31c-.47.01-.88-.41-.87-.87-.01-.47.41-.88.87-.87.47-.01.88.41.87.87.01.47-.41.88-.87.87"/>
      </g>
    </g>
    <g>
      <path class="cls-6" d="M305.33,36.03c1.03,0,1.87-.84,1.87-1.87s-.84-1.87-1.87-1.87-1.87.84-1.87,1.87c0,1.03.84,1.87,1.87,1.87Z"/>
      <path class="cls-6" d="M305.33,35.03c.48,0,.87-.39.87-.87s-.39-.87-.87-.87-.87.39-.87.87.39.87.87.87Z"/>
    </g>
    <g>
      <circle class="cls-6" cx="294.31" cy="94.68" r="2.42"/>
      <path class="cls-6" d="M294.31,95.81c.62,0,1.13-.51,1.13-1.13s-.51-1.13-1.13-1.13-1.13.51-1.13,1.13c0,.62.51,1.13,1.13,1.13Z"/>
    </g>
    <g>
      <g>
        <circle class="cls-8" cx="323.12" cy="122.92" r="2.42"/>
        <path class="cls-1" d="M323.12,125.34c-1.29.03-2.45-1.13-2.42-2.42-.03-1.29,1.13-2.45,2.42-2.42,1.29-.03,2.45,1.13,2.42,2.42.03,1.29-1.13,2.45-2.42,2.42"/>
      </g>
      <g>
        <path class="cls-4" d="M323.12,124.05c.62,0,1.13-.51,1.13-1.13s-.51-1.13-1.13-1.13-1.13.51-1.13,1.13.51,1.13,1.13,1.13Z"/>
        <path class="cls-1" d="M323.12,124.05c-.6.02-1.14-.53-1.13-1.13-.02-.6.53-1.14,1.13-1.13.6-.02,1.14.53,1.13,1.13.02.6-.53,1.14-1.13,1.13"/>
      </g>
    </g>
    <g>
      <g>
        <circle class="cls-8" cx="323.12" cy="58.6" r="2.42"/>
        <path class="cls-1" d="M323.12,61.02c-1.29.03-2.45-1.13-2.42-2.42-.03-1.29,1.13-2.45,2.42-2.42,1.29-.03,2.45,1.13,2.42,2.42.03,1.29-1.13,2.45-2.42,2.42"/>
      </g>
      <g>
        <path class="cls-4" d="M323.12,59.73c.62,0,1.13-.51,1.13-1.13,0-.62-.51-1.13-1.13-1.13s-1.13.51-1.13,1.13.51,1.13,1.13,1.13Z"/>
        <path class="cls-1" d="M323.12,59.73c-.6.02-1.14-.53-1.13-1.13-.02-.6.53-1.14,1.13-1.13.6-.02,1.14.53,1.13,1.13.02.6-.53,1.14-1.13,1.13"/>
      </g>
    </g>
    <g>
      <g>
        <path class="cls-8" d="M230.11,151.32c1.34,0,2.42-1.08,2.42-2.42s-1.08-2.42-2.42-2.42-2.42,1.08-2.42,2.42,1.08,2.42,2.42,2.42Z"/>
        <path class="cls-1" d="M230.11,151.32c-1.29.03-2.45-1.13-2.42-2.42-.03-1.29,1.13-2.45,2.42-2.42,1.29-.03,2.45,1.13,2.42,2.42.03,1.29-1.13,2.45-2.42,2.42"/>
      </g>
      <g>
        <path class="cls-4" d="M230.11,150.03c.62,0,1.13-.51,1.13-1.13s-.51-1.13-1.13-1.13-1.13.51-1.13,1.13c0,.62.51,1.13,1.13,1.13Z"/>
        <path class="cls-1" d="M230.11,150.03c-.6.02-1.14-.53-1.13-1.13-.02-.6.53-1.14,1.13-1.13.6-.02,1.14.53,1.13,1.13.02.6-.53,1.14-1.13,1.13"/>
      </g>
    </g>
    <g>
      <circle class="cls-6" cx="264.26" cy="109.43" r="2.42"/>
      <path class="cls-6" d="M264.26,110.56c.62,0,1.13-.51,1.13-1.13s-.51-1.13-1.13-1.13-1.13.51-1.13,1.13.51,1.13,1.13,1.13Z"/>
    </g>
  </g>
</svg>